<svg width="200" height="142" viewBox="0 0 200 142" fill="none" xmlns="http://www.w3.org/2000/svg">
<path fill-rule="evenodd" clip-rule="evenodd" d="M30.0357 88.2239V88.2243L27.5805 85.0864V85.086L30.0357 88.2239ZM164.654 90.9343L160.605 88.9725C159.859 90.292 158.807 91.6598 158.016 92.5799C157.774 92.862 157.559 93.0831 157.295 93.3529C157.153 93.4975 157.064 93.5497 156.929 93.6938C156.337 94.3294 155.596 94.8427 154.922 95.4093C150.94 98.7594 145.093 100.179 140.025 101.92C138.493 102.447 136.989 102.918 135.435 103.456C132.11 104.609 128.749 105.223 125.881 103.169L122.185 100.722L121.64 101.72C121.275 102.247 120.982 102.725 120.63 103.23C119.128 105.391 116.652 107.946 114.362 109.476C114.08 109.664 113.892 109.823 113.574 110.027C113.292 110.209 113.096 110.339 112.815 110.521C111.232 111.543 109.522 112.37 107.654 113.042C104.181 114.292 101.739 114.978 97.8231 114.978C94.2075 114.978 90.8273 113.591 88.4859 111.354L82.2804 105.755L81.8325 106.253C80.6915 107.319 79.3676 108.345 77.9771 109.163L75.79 110.394C75.0206 110.796 74.2716 111.125 73.4287 111.475C71.7843 112.157 69.8077 112.613 68.2631 113.253C68.2631 115.559 68.4805 119.09 68.0034 121.242C67.7305 122.475 67.1323 123.67 66.3633 124.671C63.9223 127.849 58.3326 130.718 53.9728 128.888C52.6144 128.317 52.8416 128.245 51.915 127.709C51.3353 128.655 51.1485 129.173 50.3762 130.158C49.9297 130.726 49.3602 131.207 48.8753 131.735C48.635 131.997 48.6063 131.94 48.3262 132.164C47.5524 132.78 46.6935 133.29 45.7368 133.704C44.3522 134.304 43.1849 134.526 41.4598 134.526C38.7191 134.526 36.2683 132.478 34.3093 131.095L31.8896 129.408C31.5793 129.191 30.9734 128.693 30.6242 128.612C30.6242 132.033 30.9062 135.152 28.2707 137.913C27.2386 138.994 26.208 139.86 24.8083 140.588C24.051 140.982 23.4849 141.253 22.572 141.53C21.484 141.862 20.218 141.996 18.9914 142H18.933C15.7474 142 13.5441 140.145 12.6419 137.802L0.365744 107.751L0.207178 107.275L0.0929024 106.786L0.0233443 106.289L0 105.787V83.9069L0.01508 83.4769L0.057874 83.0574L0.127432 82.648L0.221783 82.2499L0.33898 81.8628L0.477597 81.4878L0.635664 81.1255L0.811233 80.7758L1.00288 80.4395L1.20861 80.1175L1.42697 79.8094L1.65557 79.516L1.89338 79.2386L2.13804 78.9767L2.38901 78.7312L2.6424 78.5025L2.79705 78.3689L2.93956 78.2444L3.07623 78.1272L3.21143 78.0149L3.34957 77.9048L3.49595 77.7938L3.65644 77.6808L3.83446 77.5618L4.15643 77.36L4.47646 77.1722L4.79552 76.999L5.11457 76.8401L5.43507 76.6951L5.75802 76.5635L6.08437 76.4454L6.13203 76.4302L1.11668 68.3058L0.941586 67.9897L0.795678 67.6614L0.680904 67.3205L0.597738 66.9691L0.547155 66.6063L0.529653 66.2343L0.53255 52.0392L0.54326 51.6063L0.577315 51.1943L0.633717 50.8026L0.712038 50.4289L0.812706 50.0729L0.934296 49.7345L1.07778 49.4117L1.24119 49.104L1.52522 48.6567L1.84817 48.2267L2.20807 47.816L2.603 47.428L3.02904 47.067L3.48477 46.7349L3.96723 46.4348L4.47354 46.1704L5.00124 45.9447L5.5479 45.7605L6.11063 45.621L6.68695 45.5298L7.27448 45.4894L7.87077 45.5037L8.47238 45.5752L9.07743 45.7067L9.36972 45.7963L9.63819 45.8997L9.88866 46.0153L10.1246 46.141L10.3517 46.2759L10.5744 46.4176L10.7977 46.5651L11.0263 46.7168L11.2218 46.8761L11.5102 47.1494L13.4167 49.0355L13.4187 49.0292L13.5072 48.8265L13.6414 48.5512L13.815 48.2154L14.0208 47.8307L14.2518 47.4083L14.5013 46.9598L14.763 46.4966L15.0295 46.0308L15.2936 45.5735L15.5494 45.1363L15.7892 44.7311L16.0071 44.3688L16.1953 44.0611L16.3475 43.8198L16.4565 43.6567L16.6787 43.3616L16.9268 43.0686L17.1977 42.7799L17.4915 42.4978L17.8051 42.2246L18.1378 41.9627L18.4875 41.7143L18.8528 41.4818L19.2312 41.2675L19.6217 41.0737L20.023 40.9026L20.433 40.7567L20.8493 40.6386L21.2714 40.5504L21.697 40.494L22.124 40.4722L22.679 40.4814L23.1755 40.5167L23.6177 40.5752L24.0097 40.6538L24.3564 40.7504L24.6624 40.861L24.9323 40.9833L25.1701 41.1145L25.3802 41.2511L26.4979 42.0611L26.5626 41.9585L26.6666 41.8038L26.7751 41.6525L26.886 41.5041L27.0008 41.3578L27.1185 41.2132L27.2396 41.0695L27.3631 40.9257L27.4258 40.853L27.4862 40.7828L27.545 40.7134L27.6034 40.6449L27.6622 40.5764L27.7235 40.5071L27.7867 40.4364L27.8538 40.3641L28.1354 40.072L28.4302 39.7807L28.7366 39.4911L29.0551 39.2044L29.3839 38.9219L29.7229 38.6445L30.0716 38.3738L30.4291 38.1102L30.7953 37.8551L31.1689 37.61L31.5492 37.3751L31.9364 37.1523L32.3288 36.9425L32.7262 36.7466L33.1284 36.5663L33.534 36.402L34.2354 36.1443L34.9309 35.9106L35.621 35.7021L36.3068 35.5226L36.9867 35.3738L37.6623 35.2574L38.333 35.1766L38.9988 35.1334L39.6597 35.13L40.3163 35.1682L40.9685 35.2515L41.6164 35.3809L42.2593 35.56L42.8989 35.7904L43.5336 36.0741L47.4357 38.1262L47.4366 37.9547L47.4425 37.4764L47.4517 37.0165L47.4648 36.584L47.4824 36.1884L47.5042 35.84L47.5315 35.547L47.565 35.3196L47.6808 34.8168L47.8345 34.3301L48.0251 33.8605L48.2547 33.4074L48.5222 32.9732L48.8281 32.5571L49.173 32.1607L49.5562 31.784L49.8719 31.5234L50.2279 31.2746L50.6199 31.0371L51.0425 30.8101L51.4919 30.5936L51.9632 30.386L52.4515 30.1871L52.9529 29.9972L53.4617 29.8143L53.9743 29.6386L54.485 29.4692L54.9898 29.3048L55.4839 29.1464L55.9625 28.9921L56.4212 28.842L56.8555 28.6949L57.2922 28.5453L57.7285 28.3994L58.1628 28.2561L58.5962 28.114L59.0276 27.9728L59.457 27.8307L59.8845 27.6869L60.3096 27.5407L61.2507 27.2439L62.0984 27.0396L62.8591 26.9173L63.5381 26.8681L64.1412 26.8815L64.6747 26.948L65.1445 27.0577L67.7286 27.9543L67.8764 27.7424L68.1157 27.4238L68.3696 27.1085L68.6371 26.7971L68.9172 26.4902L69.2085 26.1888L69.5106 25.8937L69.8214 25.6054L70.1399 25.3254L70.4658 25.0539L70.798 24.7916L71.1341 24.5394L71.474 24.2977L71.8169 24.0686L72.1608 23.8517L72.3071 23.7634L72.453 23.6777L72.5999 23.5936L72.7473 23.5108L72.8966 23.4288L73.0484 23.3469L73.203 23.2645L73.3621 23.1812L73.8616 22.932L74.3859 22.6936L74.9311 22.4683L75.4957 22.2577L76.0764 22.0644L76.6717 21.8908L77.2777 21.7382L77.893 21.6087L78.5141 21.5049L79.1386 21.4292L79.764 21.3834L80.388 21.3691L81.0076 21.3889L81.6209 21.4452L82.224 21.5398L82.8159 21.6743L87.3619 22.8538L87.361 22.7147V22.5654L87.3624 22.4179L87.3658 22.2725L87.3853 22.0198L87.4256 21.7617L87.4825 21.5015L87.5526 21.2455L87.6319 20.9984L87.717 20.7647L87.8035 20.5499L87.8892 20.3586L88.0963 19.9559L88.3313 19.5772L88.5934 19.2212L88.8828 18.8849L89.1984 18.5684L89.5399 18.2682L89.9076 17.9837L90.301 17.7121L90.5875 17.5431L90.942 17.3658L91.355 17.1812L91.8175 16.9904L92.3209 16.7962L92.8568 16.5999L93.4157 16.4023L93.9896 16.2064L94.5688 16.0131L95.1452 15.8243L95.7098 15.6415L96.2536 15.4666L96.7682 15.301L97.2443 15.1467L97.6733 15.0051L98.0468 14.8781L98.306 14.7882L98.5618 14.7012L98.8147 14.6154L99.0657 14.5305L99.3157 14.4464L99.5652 14.3624L99.8147 14.2779L100.066 14.1921L100.312 14.1081L100.556 14.0261L100.803 13.9475L101.053 13.8727L101.311 13.8021L101.578 13.7377L101.857 13.6793L102.152 13.6289L102.562 13.5814L102.974 13.565L103.387 13.5784L103.797 13.6205L110.998 14.8512L111.077 14.6377L111.246 14.1879L111.411 13.752L111.58 13.3304L111.753 12.9219L111.936 12.5263L112.131 12.1438L112.341 11.7731L112.571 11.4149L112.824 11.0681L113.104 10.7331L113.413 10.4086L113.756 10.095L114.136 9.79154L114.557 9.49813L114.961 9.25224L115.405 9.01516L115.884 8.79406L116.385 8.59523L116.903 8.42457L117.428 8.2888L117.952 8.19422L118.468 8.14715L119.075 8.14336L119.641 8.18582L126.988 9.08661L127.143 8.79532L127.367 8.40986L127.606 8.03071L127.859 7.65996L128.125 7.29931L128.403 6.95L128.693 6.61373L128.994 6.29216L129.306 5.98698L129.627 5.69947L130.955 4.61414L131.134 4.48215L131.308 4.35772L131.481 4.23919L131.652 4.12486L131.827 4.01346L132.005 3.90334L132.19 3.79278L132.383 3.67971L132.582 3.56748L132.779 3.46029L132.977 3.35815L133.176 3.25894L133.379 3.16142L133.589 3.06474L133.805 2.96807L134.031 2.86928L134.15 2.818L134.26 2.77176L134.363 2.72846L134.465 2.68727L134.567 2.64692L134.673 2.60572L134.788 2.56201L134.914 2.51493L139.503 0.961336L139.965 0.815056L140.427 0.664569L140.891 0.515765L141.357 0.373693L141.825 0.245065L142.297 0.136192L142.774 0.0525432L143.254 0H144.089L192.296 3.11351C192.949 3.16353 193.616 3.31359 194.299 3.60447C195.725 4.21018 196.824 5.12444 197.366 6.45694C197.956 7.90755 197.719 12.7277 197.719 14.4477C197.719 16.6936 197.916 26.4709 197.506 28.1447C196.642 31.6789 192.802 34.2834 188.495 34.2452C188.166 34.2422 187.86 34.2162 187.575 34.1725C187.41 34.1468 187.252 34.1153 187.1 34.0787L183.659 33.3998C183.338 33.9665 183.019 34.5318 182.637 35.0896C180.97 37.5226 177.739 39.1397 174.388 38.6327C174.231 38.6088 174.112 38.5844 174.007 38.5592L173.994 38.5558L174.007 38.5592L173.513 38.4368L173.528 38.4402L173.543 38.4436L173.558 38.4465L173.573 38.4499L173.587 38.4532L173.601 38.4566L173.629 38.4629L173.643 38.4663L173.669 38.4726L173.683 38.4759L173.695 38.4789L173.708 38.4822L173.721 38.4856L173.734 38.4885L173.746 38.4919L173.758 38.4953L173.771 38.4982L173.783 38.5016L173.795 38.5049L173.808 38.5079L173.82 38.5113L173.832 38.5146L173.845 38.5176L173.857 38.5209L173.881 38.5272L173.893 38.5306L173.906 38.5335L173.968 38.5495L173.981 38.5529L173.994 38.5558L173.981 38.5529L173.473 38.4368C173.099 38.7063 169.746 42.8984 164.724 41.563L160.847 40.5819C160.058 40.8463 159.216 41.0859 158.489 41.3272C158.032 41.4789 157.928 41.4335 157.757 41.8442C157.625 42.1599 157.554 42.3734 157.433 42.6323C157.306 42.906 157.158 43.1771 156.99 43.4436L174.7 48.2553C176.398 48.6756 177.793 49.6811 178.615 50.996C179.303 52.0973 179.49 52.6857 179.568 53.4541L192.045 57.0561C193.415 57.46 194.613 58.0792 195.702 58.9001L196.797 59.8426C198.914 62.0061 199.86 64.4848 200 67.0599V68.434C199.907 70.2326 199.46 72.0591 198.777 73.8409C198.171 75.4231 197.295 76.7871 196.384 78.0969C195.247 79.7321 193.78 81.1343 192.23 82.4744C190.073 84.3386 187.468 85.8624 184.63 86.9128C181.16 88.1966 177.645 89.2567 174.12 90.4799C170.944 91.582 168.034 92.4761 165.026 91.1146C164.902 91.0587 164.778 90.9982 164.654 90.9343V90.9343ZM161.442 87.1903L161.444 87.2008L161.447 87.21L161.442 87.1903ZM161.41 87.1352L161.415 87.1415L161.42 87.147L161.41 87.1352ZM123.296 98.3874L123.422 98.9377C123.387 98.7578 123.347 98.5745 123.296 98.3874ZM123.422 98.9377L123.519 99.4698C123.488 99.2945 123.458 99.1176 123.422 98.9377ZM50.1092 93.3773L49.8004 93.1802C49.8918 93.2445 49.993 93.3101 50.1092 93.3773ZM49.8004 93.1802L49.5518 92.9894C49.6277 93.0524 49.7089 93.1159 49.8004 93.1802ZM49.5518 92.9894L49.3339 92.8006C49.4049 92.8637 49.476 92.9263 49.5518 92.9894ZM45.8088 80.1041L53.9388 88.0629L45.8088 80.1036V80.1041ZM103.526 98.9625L103.787 98.8372C103.704 98.8792 103.617 98.9208 103.526 98.9625ZM103.787 98.8372L104.027 98.7077C103.95 98.7519 103.87 98.7947 103.787 98.8372ZM104.027 98.7077L104.248 98.5711C104.177 98.6182 104.103 98.6636 104.027 98.7077ZM104.248 98.5711L104.454 98.4249C104.387 98.4753 104.319 98.5241 104.248 98.5711ZM104.454 98.4249L104.648 98.2655C104.585 98.321 104.521 98.374 104.454 98.4249ZM104.648 98.2655L104.831 98.0907C104.771 98.152 104.71 98.2101 104.648 98.2655ZM104.831 98.0907L105.009 97.8973C104.951 97.9654 104.891 98.0297 104.831 98.0907ZM105.009 97.8973L105.182 97.6825C105.124 97.7582 105.067 97.8296 105.009 97.8973ZM105.182 97.6825L105.395 97.3408C105.329 97.4673 105.258 97.5816 105.182 97.6825ZM105.395 97.3408L105.576 96.9267C105.52 97.076 105.46 97.2143 105.395 97.3408ZM105.576 96.9267L105.728 96.4484C105.682 96.6174 105.631 96.7775 105.576 96.9267ZM105.728 96.4484L105.854 95.9158C105.816 96.1012 105.775 96.2794 105.728 96.4484ZM105.854 95.9158L105.955 95.3374C105.925 95.5366 105.892 95.73 105.854 95.9158ZM105.955 95.3374L106.035 94.722C106.012 94.9322 105.986 95.1382 105.955 95.3374ZM106.035 94.722L106.096 94.0793C106.079 94.297 106.059 94.5118 106.035 94.722ZM106.096 94.0793L106.14 93.4177C106.128 93.6405 106.114 93.8616 106.096 94.0793ZM106.14 93.4177L106.17 92.7464C106.162 92.9708 106.152 93.1949 106.14 93.4177ZM106.17 92.7464L106.188 92.0743C106.184 92.2975 106.178 92.5219 106.17 92.7464ZM180.331 57.7623L179.975 57.8551C180.074 57.832 180.194 57.8001 180.331 57.7623ZM179.975 57.8551L179.755 57.8959C179.801 57.8926 179.877 57.8783 179.975 57.8551ZM186.762 56.4773L186.219 56.534C186.38 56.5189 186.559 56.5008 186.762 56.4773ZM186.219 56.534L185.78 56.5714C185.913 56.5609 186.058 56.5491 186.219 56.534ZM184.222 32.4347L184.44 32.594C184.356 32.5255 184.284 32.4705 184.222 32.4347ZM45.2616 55.7606L45.0977 55.6547C45.1517 55.6929 45.2052 55.7282 45.2616 55.7606ZM96.4924 38.5949L96.3518 38.5453C96.3995 38.5672 96.4462 38.5844 96.4924 38.5949ZM121.396 32.436L121.394 32.6491C121.396 32.5827 121.397 32.5121 121.396 32.436ZM147.658 30.3759L147.537 30.6966C147.578 30.5924 147.619 30.4843 147.658 30.3759ZM147.537 30.6966L147.411 30.9955C147.453 30.9017 147.496 30.8009 147.537 30.6966ZM147.411 30.9955L147.282 31.2527C147.325 31.1762 147.369 31.0892 147.411 30.9955ZM147.282 31.2527L147.153 31.4494C147.196 31.3961 147.239 31.3297 147.282 31.2527ZM187.14 4.13242L186.563 4.31486C186.755 4.25559 186.948 4.19463 187.14 4.13242Z" fill="white"/>
<path d="M16.9646 84.7023C16.9646 86.0179 16.9835 86.4723 17.3833 87.0289C17.859 87.6968 18.9815 87.9124 20.3136 87.4652C21.6458 87.0184 22.7683 86.0495 23.2439 85.0621C23.6437 84.2374 23.6627 83.7704 23.6627 82.4547V74.9885L26.7642 78.5854C27.4874 79.4278 28.1917 79.7178 29.6376 79.2327C31.0841 78.7472 31.7878 77.9847 32.511 76.6568L35.6126 70.9784V78.4446C35.6126 79.7603 35.6315 80.2147 36.0313 80.7708C36.507 81.4391 37.63 81.6543 38.9616 81.2075C40.2938 80.7607 41.4163 79.7914 41.8925 78.804C42.2918 77.9797 42.3107 77.5123 42.3107 76.1966V59.9098C42.3107 58.6925 42.1585 57.9052 41.3404 57.4672C40.7315 57.1452 40.0083 57.1414 39.0949 57.4479C38.2958 57.716 37.7248 58.0225 37.1349 58.5656C36.469 59.1675 35.9744 59.9149 35.4988 60.7652L29.6376 71.3659L23.777 64.6988C23.3008 64.1679 22.8062 63.7526 22.1404 63.5975C21.5504 63.4504 20.9794 63.5269 20.1803 63.7951C19.267 64.1015 18.5437 64.5908 17.9348 65.3218C17.1168 66.3088 16.9646 67.1982 16.9646 68.4155V84.7023V84.7023ZM16.3021 133.862C16.3021 135.869 16.3313 136.562 16.9407 137.41C17.6664 138.421 19.3788 138.75 21.4109 138.068C23.4424 137.386 25.1548 135.908 25.8805 134.41C26.4899 133.153 26.5191 132.44 26.5191 130.433V121.979L27.4188 121.678L38.7389 129.569C40.4514 130.775 41.4961 131.327 43.4697 130.665C44.6311 130.275 45.6467 129.558 46.5464 128.604C47.6495 127.431 48.3173 126.204 48.3173 125.025C48.3173 123.67 47.7657 123.027 46.0533 121.846L35.5459 114.51L45.1535 101.929C46.9238 99.6044 47.4175 98.5855 47.4175 97.2307C47.4175 96.0516 46.7497 95.2727 45.6467 94.8398C44.7469 94.49 43.7314 94.4539 42.5699 94.8435C40.5963 95.506 39.5516 96.7599 37.8391 99.1155L27.4188 113.399L26.5191 113.701V106.15C26.5191 104.143 26.4899 103.451 25.8805 102.602C25.1548 101.591 23.4424 101.263 21.4109 101.944C19.3788 102.626 17.6664 104.104 16.9407 105.602C16.3313 106.86 16.3021 107.572 16.3021 109.579V133.862V133.862ZM53.89 121.248C53.89 123.255 53.9192 123.948 54.5286 124.797C55.2542 125.807 56.9667 126.136 58.9987 125.454C61.0302 124.772 62.7427 123.295 63.4683 121.797C64.0778 120.539 64.107 119.827 64.107 117.82V110.796L70.3183 108.711C79.4905 105.633 84.4246 98.358 84.4246 92.4883C84.4246 86.6182 79.4905 82.6548 70.3183 85.7329L60.1305 89.1516C58.6213 89.6581 56.7347 90.2912 55.3126 91.9978C53.89 93.704 53.89 95.3345 53.89 96.6392V121.248V121.248ZM64.107 102.969V95.6443L69.8543 93.7153C72.6406 92.7805 74.266 94.0159 74.266 95.8973C74.266 97.7784 72.6406 100.105 69.8543 101.04L64.107 102.969ZM116.266 102.424C120.474 97.374 120.532 92.7641 120.532 86.7435C120.532 80.7228 120.474 76.1516 116.266 73.9267C113.305 72.3609 109.793 72.1852 104.742 73.88C99.692 75.5749 96.1799 78.1079 93.2195 81.6602C89.0105 86.7098 88.9526 91.3198 88.9526 97.3404C88.9526 103.361 89.0105 107.932 93.2195 110.157C96.1799 111.723 99.692 111.899 104.742 110.204C109.793 108.509 113.305 105.976 116.266 102.424ZM108.806 99.4081C108.052 100.514 106.6 101.754 104.742 102.377C102.885 103 101.434 102.735 100.679 102.135C99.7503 101.393 99.1696 100.434 99.1696 93.912C99.1696 87.3895 99.7503 85.9906 100.679 84.6253C101.434 83.519 102.885 82.3298 104.742 81.7064C106.6 81.0831 108.052 81.2983 108.806 81.8981C109.735 82.64 110.316 83.6493 110.316 90.1718C110.316 96.6939 109.735 98.0428 108.806 99.4081ZM145.493 96.2277C152.866 93.7536 158.381 88.1903 158.381 81.3668C158.381 76.3496 154.956 75.643 153.272 75.305C154.549 74.1234 157.8 70.7749 157.8 66.711C157.8 60.5399 153.214 57.9149 144.623 60.798L133.68 64.4702C132.171 64.9767 130.284 65.6097 128.862 67.3159C127.44 69.0225 127.44 70.653 127.44 71.9578V96.8927C127.44 98.1971 127.44 99.828 128.862 100.58C130.284 101.332 132.171 100.699 133.68 100.192L145.493 96.2277V96.2277ZM137.657 76.8321V70.9624L143.984 68.8392C146.771 67.904 147.642 69.1419 147.642 70.5719C147.642 71.9767 146.771 73.7737 143.984 74.709L137.657 76.8321V76.8321ZM137.657 91.0306V84.709L144.507 82.4105C147.293 81.4753 148.222 82.7695 148.222 84.2744C148.222 85.8048 147.293 87.7968 144.507 88.7321L137.657 91.0306V91.0306ZM181.775 84.0524C190.947 80.9746 195.881 73.6993 195.881 67.8292C195.881 61.959 190.947 57.996 181.775 61.0738L175.564 63.1583V56.1347C175.564 54.1276 175.534 53.4348 174.925 52.5862C174.199 51.5752 172.487 51.2465 170.455 51.9283C168.423 52.6101 166.711 54.088 165.985 55.5862C165.376 56.8438 165.347 57.5559 165.347 59.5631V84.1718C165.347 85.4761 165.347 87.1071 166.769 87.8591C168.191 88.6106 170.078 87.9776 171.587 87.4711L181.775 84.0524V84.0524ZM175.564 78.3101V70.9851L181.311 69.0566C184.097 68.1213 185.723 69.3567 185.723 71.2382C185.723 73.1196 184.097 75.4462 181.311 76.3815L175.564 78.3101V78.3101ZM64.746 70.0549C67.5051 66.7447 67.5431 63.7224 67.5431 59.7753C67.5431 55.8283 67.5051 52.8312 64.746 51.3722C62.8049 50.3461 60.5025 50.2305 57.1914 51.3419C53.8803 52.4529 51.5778 54.1137 49.6368 56.4428C46.8776 59.7531 46.8397 62.7757 46.8397 66.7228C46.8397 70.6698 46.8776 73.6665 49.6368 75.1255C51.5778 76.1516 53.8803 76.2672 57.1914 75.1562C60.5025 74.0448 62.8049 72.384 64.746 70.0549ZM59.8557 68.078C59.3606 68.8035 58.4092 69.6156 57.1914 70.0246C55.9736 70.4332 55.0222 70.2592 54.5276 69.8657C53.9187 69.3794 53.5379 68.7505 53.5379 64.4748C53.5379 60.1986 53.9187 59.2814 54.5276 58.3865C55.0222 57.6614 55.9736 56.8817 57.1914 56.4731C58.4092 56.0641 59.3606 56.2058 59.8557 56.5988C60.4646 57.0851 60.8449 57.7467 60.8449 62.0229C60.8449 66.2987 60.4646 67.1831 59.8557 68.078ZM86.8384 61.2596C86.8384 62.5753 86.8574 63.0297 87.2572 63.5862C87.7329 64.2487 88.8559 64.4643 90.1875 64.0175C91.5197 63.5702 92.6422 62.6013 93.1183 61.6194C93.5176 60.7947 93.5366 60.3277 93.5366 59.012V42.8787C93.5366 42.0233 93.5366 40.9543 92.6042 40.4613C91.6719 39.9686 90.4351 40.3835 89.4453 40.7156L79.7789 43.9594C78.7892 44.2914 77.5524 44.7068 76.62 45.8253C75.6877 46.9438 75.6877 48.0128 75.6877 48.8682V56.1536C75.6877 59.6622 75.5923 63.4769 72.1674 64.7745C71.2161 65.1263 70.5687 65.4916 69.9792 66.1995C69.4652 66.8157 69.1418 67.6152 69.1418 68.355C69.1418 69.3802 69.7507 70.0805 70.5882 70.1448C71.254 70.2012 71.7676 70.0616 73.4042 69.5122C79.3033 67.5328 82.1193 64.2196 82.1193 54.4176V48.3053L86.8384 46.7215V61.2596V61.2596ZM115.972 52.8648C118.731 49.5542 118.769 46.5319 118.769 42.5849C118.769 38.6378 118.731 35.6407 115.972 34.1821C114.031 33.1561 111.728 33.0405 108.417 34.1515C105.106 35.2629 102.804 36.9236 100.863 39.2523C98.1035 42.563 98.0656 45.5853 98.0656 49.5323C98.0656 53.4794 98.1035 56.4765 100.863 57.9351C102.804 58.9615 105.106 59.0771 108.417 57.9657C111.728 56.8548 114.031 55.194 115.972 52.8648ZM111.082 50.8875C110.586 51.613 109.635 52.4256 108.417 52.8342C107.199 53.2427 106.248 53.0691 105.753 52.6757C105.145 52.1893 104.764 51.5605 104.764 47.2847C104.764 43.0086 105.145 42.0914 105.753 41.1964C106.248 40.4713 107.199 39.6912 108.417 39.2826C109.635 38.874 110.586 39.0153 111.082 39.4083C111.69 39.8946 112.071 40.5563 112.071 44.8324C112.071 49.1082 111.69 49.9926 111.082 50.8875ZM146.095 43.6445C146.095 42.3617 146.057 41.9136 145.714 41.4369C145.258 40.8169 144.211 40.642 142.974 41.0405V26.2885C142.974 25.4331 142.974 24.3641 142.041 23.8715C141.109 23.3784 139.872 23.7937 138.883 24.1254L129.311 27.3376C128.322 27.6697 127.256 28.0274 126.419 29.0316C125.506 30.1275 125.506 31.246 125.506 31.9039V32.1342C125.506 37.3473 124.592 43.1796 122.803 47.8421C121.757 48.3087 120.901 49.0893 120.52 49.8913C120.177 50.5983 120.14 51.0716 120.14 52.3545V55.0515C120.14 56.3344 120.177 56.7825 120.52 57.2591C120.958 57.8855 122.004 58.0767 123.26 57.6555C124.516 57.2339 125.562 56.3403 126 55.4201C126.343 54.7135 126.381 54.2398 126.381 52.9569V51.74L139.853 47.2192V48.4361C139.853 49.719 139.891 50.1666 140.234 50.6437C140.671 51.27 141.718 51.4613 142.974 51.0397C144.23 50.6185 145.277 49.7244 145.714 48.8047C146.057 48.0977 146.095 47.6244 146.095 46.3415V43.6445V43.6445ZM136.276 43.2885L129.578 45.5361C130.986 41.6429 132.014 37.7782 132.014 32.1868V31.5617L136.276 30.1317V43.2885ZM148.321 39.9695C147.693 41.6277 147.274 42.9031 148.549 43.5769C149.139 43.8888 150.034 43.9342 150.947 43.6277C151.689 43.3789 152.355 42.9413 152.831 42.4033C153.402 41.7677 153.649 41.241 154.144 39.8909L154.544 38.8026L164.058 35.6096L164.458 36.4297C164.952 37.4478 165.2 37.8089 165.77 38.0611C166.246 38.2797 166.912 38.27 167.654 38.0212C168.568 37.7147 169.462 37.0691 170.052 36.3612C171.327 34.8316 170.908 33.837 170.28 32.6008L163.05 18.433C162.573 17.5238 162.212 17.185 161.66 16.9921C160.994 16.7546 160.29 16.8101 159.301 17.1422C158.311 17.4742 157.607 17.8912 156.941 18.5755C156.389 19.1388 156.028 19.7206 155.552 20.9492L148.321 39.9695V39.9695ZM162.041 31.4844L156.561 33.3238L159.301 25.8912L162.041 31.4844V31.4844ZM186.912 27.6773C186.912 28.993 186.931 29.4473 187.33 30.0039C187.806 30.6664 188.929 30.882 190.261 30.4347C191.593 29.9879 192.716 29.019 193.191 28.0371C193.591 27.2124 193.61 26.7454 193.61 25.4297V9.29639C193.61 8.44098 193.61 7.37205 192.677 6.87899C191.745 6.38634 190.508 6.80121 189.519 7.13329L182.84 9.37457C176.826 11.3927 173.591 16.1619 173.591 20.0102C173.591 22.51 174.943 24.4911 177.549 25.0136L174.505 30.6403C173.744 32.0472 173.516 32.6336 173.516 33.357C173.516 34.344 174.086 34.9253 175.152 35.0943C175.685 35.1784 176.256 35.1346 176.826 34.9434C178.539 34.3683 179.357 32.9425 180.118 31.5361L184.191 23.9858L186.912 23.0724V27.6773V27.6773ZM186.912 17.9412L183.144 19.2056C181.317 19.8185 180.252 19.0089 180.252 17.7752C180.252 16.5419 181.317 15.0165 183.144 14.4036L186.912 13.1392V17.9412V17.9412Z" fill="url(#paint0_linear)"/>
<defs>
<linearGradient id="paint0_linear" x1="16.3021" y1="72.3416" x2="195.881" y2="72.3416" gradientUnits="userSpaceOnUse">
<stop stop-color="#7974DB"/>
<stop offset="1" stop-color="#6B52A1"/>
</linearGradient>
</defs>
</svg>
