<svg width="200" height="142" viewBox="0 0 200 142" fill="none" xmlns="http://www.w3.org/2000/svg">
<path fill-rule="evenodd" clip-rule="evenodd" d="M167.886 27.055L167.947 26.9045C167.929 26.9537 167.908 27.0046 167.886 27.055ZM167.947 26.9045L167.993 26.7595C167.98 26.807 167.965 26.8549 167.947 26.9045ZM127.076 7.54501L126.811 7.83885L126.555 8.12888L126.307 8.41552L126.068 8.70046L125.836 8.98498L125.612 9.27034L125.397 9.55868L125.189 9.8504L124.989 10.1472L124.798 10.4508L124.672 10.6654L114.489 10.1828H114.138L113.786 10.2023L113.434 10.2405L113.079 10.2973L112.723 10.3724L112.364 10.4644L112.002 10.5742L111.635 10.7001L111.265 10.8426L110.707 11.0835L110.194 11.3387L109.723 11.608L109.29 11.8925L108.893 12.1918L108.529 12.5073L108.195 12.8389L107.887 13.1866L107.604 13.5512L107.343 13.9333L107.099 14.3331L106.871 14.7512L106.655 15.188L106.449 15.6429L106.25 16.1178L106.055 16.6122L105.907 17.0015L97.6394 16.2073L97.153 16.1793L96.6646 16.1903L96.1752 16.2344L95.6868 16.3091L95.1989 16.4083L94.7139 16.5287L94.2314 16.6652L93.7548 16.8145L93.2826 16.9718L92.8172 17.1321L92.3597 17.2919L91.9105 17.4463L91.4712 17.5913L86.674 19.2098L86.3871 19.3073L86.0954 19.4031L85.7992 19.4981L85.5006 19.5931L85.1995 19.6885L84.8974 19.7856L84.5958 19.8844L84.2952 19.9862L83.9966 20.0917L83.7019 20.2016L83.4111 20.3156L83.1262 20.4361L82.8472 20.5628L82.5765 20.6968L82.3142 20.8385L82.0617 20.9886L81.6865 21.2362L81.3266 21.4999L80.9824 21.7789L80.6563 22.0736L80.3484 22.3827L80.0605 22.7054L79.7942 23.0421L79.551 23.3919L79.3313 23.7536L79.1372 24.128L78.9695 24.5134L78.8302 24.9099L78.7203 25.3169L78.6409 25.7333L78.6218 25.9046L72.4477 24.7246L71.6038 24.6729L71.2742 24.6835L70.9325 24.7144L70.5804 24.7628L70.2195 24.8281L69.8527 24.9069L69.4815 24.9981L69.1073 25.0998L68.7332 25.2101L68.3605 25.3263L67.9913 25.4475L67.6284 25.5709L67.2719 25.6952L66.9257 25.8177L66.5908 25.9377L66.2691 26.0518L65.9631 26.1595L65.6277 26.2752L65.2943 26.3889L64.9618 26.5012L64.6308 26.6128L64.2999 26.7226L63.9703 26.832L63.6408 26.941L63.3118 27.0495L62.9828 27.1585L62.6537 27.267L62.3237 27.3764L61.9932 27.4862L61.6627 27.5977L61.3302 27.7101L60.9968 27.8238L60.6624 27.9391L60.3265 28.0544L59.995 28.1664L59.6665 28.2762L59.3394 28.3847L59.0113 28.4928L58.6823 28.6023L58.3493 28.7142L58.012 28.8295L57.5878 28.9822L57.1916 29.1378L56.8175 29.2993L56.46 29.4689L56.1148 29.6492L55.774 29.8425L55.4342 30.0516L55.0884 30.2784L55.0095 30.3323L54.9433 30.3785L54.8859 30.4204L54.8339 30.4603L54.783 30.501L54.73 30.5447L54.6712 30.5951L54.6025 30.6541L54.3039 30.9327L53.9778 31.277L53.6453 31.6692L53.3271 32.0924L53.0422 32.5295L52.8112 32.9633L52.6989 33.2588L50.4884 32.5507L50.0069 32.4087L49.5199 32.3078L49.0301 32.2459L48.5377 32.223L48.0449 32.237L47.5531 32.2874L47.0627 32.3731L46.5763 32.4926L46.0948 32.6453L45.6196 32.8297L45.1523 33.0447L44.6933 33.2898L44.2451 33.5633L44.1843 33.6027L44.1338 33.6371L44.0907 33.6667L44.0519 33.6956L44.0127 33.7244L43.9715 33.7554L43.9244 33.7914L43.8685 33.8342L43.8126 33.8754L43.7636 33.9093L43.719 33.9381L43.6773 33.9648L43.6356 33.9915L43.5915 34.0212L43.5424 34.0568L43.4866 34.1001L43.2992 34.2566L43.1208 34.4194L42.9501 34.5877L42.7868 34.7607L42.6289 34.9388L42.4759 35.1199L42.3268 35.3039L42.1807 35.49L42.1033 35.5893L42.0287 35.6817L41.9571 35.7707L41.8865 35.8581L41.8169 35.9471L41.7472 36.0404L41.6766 36.1409L41.6036 36.2503L41.4423 36.5056L41.2863 36.7617L41.1333 37.0186L40.9847 37.2769L40.8391 37.5359L40.6954 37.7959L40.5537 38.0562L40.4135 38.317L40.2742 38.5778L40.1354 38.8394L39.9957 39.1006L39.8559 39.3618L39.7147 39.6225L39.5715 39.8833L39.4259 40.1436L39.2773 40.4031L38.7992 41.2745L33.495 38.7622L33.2111 38.6435L32.9188 38.5383L32.6187 38.4476L32.3108 38.37L31.995 38.3068L31.6718 38.2576L31.3423 38.2224L31.0064 38.2008L30.6651 38.1936L30.1551 38.2139L29.6481 38.2741L29.1465 38.3712L28.6522 38.5031L28.1682 38.6681L27.6955 38.8631L27.2365 39.0861L26.7947 39.3355L26.3705 39.6085L25.9675 39.9032L25.5865 40.2166L25.23 40.5469L24.9014 40.8921L24.6013 41.2499L24.3326 41.6175L24.0977 41.9932L23.9835 42.201L23.8766 42.4134L23.7765 42.6301L23.6839 42.8502L23.598 43.0736L23.5191 43.3005L23.4465 43.5294L23.3808 43.7601L23.3627 43.8398L23.3465 43.9263L23.3323 44.0167L23.3176 44.1078L23.3014 44.1973L23.2823 44.2817L23.2587 44.358L23.2293 44.4237L23.0753 44.3745L22.9199 44.3007L22.8017 44.2316L22.3898 43.9704L22.174 43.8369L21.9298 43.6978L21.6513 43.557L21.3336 43.4188L20.9712 43.2865L20.5588 43.1639L20.091 43.055L19.5614 42.9638L18.9666 42.8934L18.2997 42.8489L17.5559 42.8332L17.2062 42.8408L16.8566 42.8625L16.5075 42.8968L16.1583 42.9435L15.8111 43.0007L15.4655 43.0681L15.1212 43.144L14.7799 43.2275L14.4421 43.3174L14.1072 43.4124L13.7766 43.5121L13.4506 43.6147L13.1294 43.7194L12.8136 43.8254L12.5042 43.9314L12.2001 44.0357L12.0991 44.0705L12.0001 44.1057L11.9025 44.1409L11.8049 44.1769L11.7064 44.2138L11.6058 44.252L11.5033 44.2927L11.3969 44.3351L10.8369 44.5708L10.2917 44.8185L9.76012 45.0793L9.24033 45.3519L8.72938 45.6377L8.22676 45.9362L7.73051 46.2474L7.23819 46.5722L6.83953 46.8555L6.44136 47.1659L6.04514 47.5L5.65238 47.8553L5.26547 48.2293L4.88595 48.6194L4.51622 49.0226L4.15824 49.4356L3.81302 49.8567L3.48301 50.2824L3.17017 50.7102L2.87595 51.1372L2.60283 51.5608L2.35176 51.978L2.12619 52.3864L1.92612 52.7833L1.67654 53.3514L1.46028 53.9315L1.27493 54.523L1.11949 55.1251L0.98953 55.7361L0.883629 56.3556L0.799779 56.9828L0.734558 57.6154L0.686503 58.2535L0.652169 58.8964L0.630117 59.5421L0.617858 60.19L0.611968 60.8388L0.610986 61.488L0.611968 62.1363L0.612949 62.7829L0.614913 63.0551L0.620779 63.3325L0.630596 63.6131L0.644818 63.8968L0.662464 64.1813L0.68454 64.4659L0.710518 64.7491L0.741429 65.0298L0.77574 65.3067L0.81448 65.5785L0.857626 65.8443L0.905202 66.1021L0.957183 66.3511L1.01357 66.5902L1.07436 66.8183L1.13958 67.0333L1.21953 67.2746L1.29895 67.5044L1.37988 67.7244L1.46471 67.9381L1.55493 68.148L1.6525 68.3562L1.75991 68.5661L1.87905 68.7803L2.21054 69.2976L8.54059 78.7078L8.51312 78.7091L7.88792 78.7808L7.26663 78.8952L6.65369 79.0496L6.05347 79.2408L5.47045 79.4651L4.908 79.7204L4.37203 80.0019L3.86599 80.3085L3.46831 80.5782L3.08337 80.8665L2.71168 81.1722L2.35569 81.4966L2.01782 81.8384L1.69909 82.1975L1.40193 82.574L1.12783 82.9675L0.87872 83.378L0.657077 83.8054L0.463878 84.2489L0.302045 84.7094L0.172608 85.1852L0.0779595 85.6775L0.0196096 86.1858L0 86.7091V108.779V108.814L0.00931396 109.09L0.0333291 109.375L0.0706089 109.662L0.119645 109.946L0.179455 110.221L0.249106 110.482L0.328048 110.723L11.0507 137.72C11.0856 137.815 11.1218 137.905 11.1591 137.989C12.1776 140.26 14.4224 142 17.444 142H17.5029C18.7396 141.996 20.016 141.861 21.1129 141.526C22.0333 141.247 22.6041 140.973 23.3676 140.576C24.7788 139.842 25.8179 138.968 26.8585 137.877C29.5157 135.093 29.2313 131.946 29.2313 128.496C29.5834 128.577 30.1944 129.08 30.5072 129.298L32.9468 131C34.9219 132.396 37.3928 134.461 40.156 134.461C41.8953 134.461 43.0722 134.237 44.4683 133.632C45.5358 133.17 46.2527 132.781 47.0784 132.078L47.4781 131.761C48.0881 131.233 48.6584 130.676 49.1458 130.055L50.3472 128.276C50.4913 128.016 50.5561 127.815 50.6973 127.585C51.6314 128.125 51.4024 128.199 52.772 128.774C55.5567 129.943 59.2497 128.956 61.4489 127.766C64.1895 126.285 66.3015 123.847 66.9179 121.062C67.3989 118.891 67.1797 115.329 67.1797 113.003L69.8032 112.123C71.5346 111.592 73.219 110.924 74.7695 110.12L78.0103 108.2C78.206 108.071 78.2844 107.988 78.4742 107.855L80.9976 105.702L87.9313 111.481C88.0847 111.616 88.2431 111.748 88.4055 111.876C89.3288 112.602 90.3855 113.202 91.4928 113.608C93.718 114.423 95.3004 114.743 98.0371 114.743C102.327 114.743 107.014 112.967 110.358 111.228C112.036 110.355 113.646 109.329 115.023 108.136C116.335 107 117.141 106.178 118.279 104.986C119.351 103.865 120.135 102.613 120.996 101.37L121.432 100.571L125.855 103.209C128.612 104.816 131.775 104.208 134.905 103.122C136.466 102.58 137.991 102.101 139.532 101.571C142.329 100.611 146.297 99.4339 148.763 98.3671C151.225 97.3024 153.502 96.0116 155.415 94.3423C157.314 92.6861 158.961 90.8289 160.13 88.7219L164.89 90.7411C165.786 91.1253 166.833 91.3805 168.089 91.3805C170.554 91.3805 174.217 89.9342 176.521 89.1425C182.333 87.1458 187.661 85.853 192.166 81.9567C195.053 79.4596 197.454 76.6797 198.767 73.2481C199.44 71.4889 199.909 69.6228 200 67.7512V66.4388C199.925 64.9607 199.589 63.4936 198.906 62.0871C198.364 60.9702 197.675 60.0751 196.824 59.1643C196.226 58.5241 195.478 58.0008 194.704 57.5179C194.054 57.1133 193.386 56.8403 192.654 56.5558C192.186 56.3739 191.687 56.2322 191.17 56.1152L179.486 53.4473C179.261 51.3081 178.55 49.4823 176.332 48.2157C175.606 47.801 174.806 47.5267 173.975 47.3732L159.982 44.489H160.806C163.814 44.489 167.022 42.2375 168.187 40.4918L169.528 40.7318C171.457 41.096 173.831 40.6635 175.318 39.8858C177.31 38.844 178.619 37.3977 179.653 35.5969L180.137 34.7268L185.95 35.5617C186.234 35.6028 186.511 35.6244 186.775 35.6244C191.851 35.6244 196.55 31.5505 196.55 27.2568V5.55084C196.55 2.51019 193.717 0 190.609 0C190.479 0 190.353 0.00169028 190.229 0.00465842L143.974 0.54783L143.647 0.552075L143.336 0.563938L143.039 0.583027L142.754 0.61016L142.481 0.644084L142.215 0.685637L141.955 0.73397L141.7 0.788246L141.447 0.849727L141.195 0.917574L140.941 0.991778L140.682 1.0715L140.418 1.15714L140.147 1.24831L139.865 1.34499L139.572 1.44717L139.144 1.59516L138.717 1.74144L138.289 1.88562L137.863 2.02935L137.436 2.17225L137.009 2.31429L136.583 2.45592L136.157 2.59797L135.732 2.74044L135.306 2.88333L134.881 3.02792L134.457 3.17336L134.032 3.32049L133.607 3.47017L133.184 3.62197L132.759 3.77631L132.55 3.85688L132.351 3.94084L132.16 4.02776L131.974 4.11723L131.79 4.20925L131.605 4.30465L131.417 4.40259L131.224 4.50309L130.865 4.6922L130.506 4.88936L130.151 5.09587L129.801 5.31085L129.459 5.53515L129.128 5.76836L128.81 6.01133L128.507 6.26362L128.355 6.39591L128.205 6.52439L128.057 6.65032L127.91 6.7754L127.764 6.9005L127.617 7.02728L127.468 7.1566L127.317 7.29017L127.273 7.3313L127.238 7.36352L127.212 7.39023L127.19 7.41441L127.169 7.43858L127.145 7.46656L127.115 7.50133L127.076 7.54501V7.54501ZM130.757 54.9127L139.929 57.6735L130.758 54.9127H130.757ZM108.769 45.1361H108.771L108.773 45.0716L108.769 45.1361ZM39.677 54.8448L39.7137 54.7626C39.7029 54.7927 39.6907 54.8202 39.677 54.8448ZM39.7137 54.7626L39.7431 54.6672C39.7343 54.7007 39.7245 54.7329 39.7137 54.7626ZM39.0875 54.5731L39.2905 54.6909L39.4818 54.7821C39.3548 54.7303 39.2263 54.6587 39.0875 54.5731V54.5731ZM39.4867 54.7838L39.677 54.8448C39.6132 54.83 39.5504 54.8092 39.4867 54.7838ZM102.733 98.588L102.996 98.4617C102.912 98.5041 102.824 98.546 102.733 98.588ZM102.996 98.4617L103.237 98.3311C103.16 98.3756 103.079 98.4188 102.996 98.4617ZM103.237 98.3311L103.46 98.1932C103.389 98.2407 103.315 98.2865 103.237 98.3311ZM103.46 98.1932L103.668 98.0457C103.601 98.097 103.532 98.1458 103.46 98.1932ZM103.668 98.0457L103.864 97.8854C103.8 97.9414 103.736 97.9944 103.668 98.0457ZM103.864 97.8854L104.049 97.709C103.988 97.7709 103.927 97.8294 103.864 97.8854ZM104.049 97.709L104.227 97.514C104.169 97.5827 104.109 97.6475 104.049 97.709ZM104.227 97.514L104.402 97.2973C104.344 97.3736 104.286 97.4457 104.227 97.514ZM161.125 86.7138L161.127 86.7244L161.13 86.7337L161.125 86.7138ZM161.13 86.7337L161.135 86.7413L161.139 86.7485L161.13 86.7337ZM161.139 86.7485L161.144 86.7549L161.148 86.7604L161.139 86.7485ZM161.093 86.6582L161.098 86.6646L161.103 86.6701L161.093 86.6582ZM122.665 98.0084L122.792 98.5634C122.757 98.3819 122.716 98.197 122.665 98.0084ZM122.792 98.5634L122.89 99.1002C122.859 98.9234 122.828 98.7449 122.792 98.5634ZM75.0098 78.3852H75.0093L70.1101 75.233H70.1106L75.0098 78.3852ZM104.402 97.2973L104.617 96.9526C104.551 97.0802 104.479 97.1955 104.402 97.2973ZM104.617 96.9526L104.799 96.5349C104.743 96.6854 104.683 96.8249 104.617 96.9526ZM104.799 96.5349L104.953 96.0524C104.907 96.2228 104.855 96.3844 104.799 96.5349ZM104.953 96.0524L105.08 95.5151C105.042 95.7021 105 95.8819 104.953 96.0524ZM105.08 95.5151L105.182 94.9317C105.152 95.1327 105.118 95.3277 105.08 95.5151ZM105.182 94.9317L105.263 94.3109C105.239 94.5229 105.213 94.7307 105.182 94.9317ZM105.263 94.3109L105.324 93.6626C105.306 93.8822 105.286 94.0989 105.263 94.3109ZM105.324 93.6626L105.368 92.9952C105.356 93.2199 105.341 93.4429 105.324 93.6626ZM105.368 92.9952L105.398 92.318C105.391 92.5444 105.381 92.7704 105.368 92.9952ZM105.398 92.318L105.417 91.64C105.413 91.8652 105.406 92.0916 105.398 92.318ZM55.8637 74.5766L66.4805 82.3252L55.8637 74.5762V74.5766ZM48.8766 92.9545L48.5652 92.7556C48.6574 92.8205 48.7594 92.8866 48.8766 92.9545ZM48.5652 92.7556L48.3146 92.5631C48.3911 92.6267 48.473 92.6907 48.5652 92.7556ZM48.3146 92.5631L48.095 92.3727C48.1665 92.4363 48.2381 92.4995 48.3146 92.5631ZM105.418 88.0634L105.415 87.8904C105.417 87.9434 105.418 88.0002 105.418 88.0634ZM85.2029 70.0485L93.6518 74.4994L85.2034 70.0485H85.2029ZM122.66 74.5868L122.665 75.308C122.665 75.0608 122.663 74.8213 122.66 74.5868ZM145.857 49.5272L161.83 53.4939L145.857 49.5272H145.857ZM180.205 57.0201L179.97 57.0888C180.044 57.0684 180.123 57.0451 180.205 57.0201ZM179.97 57.0888L179.76 57.1392C179.825 57.1261 179.895 57.1087 179.97 57.0888ZM179.76 57.1392L179.588 57.1646C179.638 57.1608 179.696 57.1519 179.76 57.1392Z" fill="white"/>
<path d="M15.5721 75.7342C15.5721 80.4014 15.6172 83.9449 18.8781 85.6703C21.172 86.8838 23.8935 87.0199 27.7168 85.736C31.6299 84.4224 33.8115 83.1257 35.7906 80.9251C38.2194 78.2232 38.8264 75.978 38.8264 74.7721C38.8264 73.5662 38.4444 72.9361 37.7246 72.5553C37.0047 72.1746 36.0377 72.1691 35.0031 72.5163C34.1263 72.8106 33.429 73.2389 32.8891 73.7511C32.0344 74.544 31.4725 75.4713 30.7978 76.7285C29.8979 78.411 28.9535 79.2536 27.5369 79.7293C26.1874 80.1822 25.2876 79.9401 24.7031 79.4749C23.7807 78.7346 23.4885 77.6266 23.4885 73.076C23.4885 68.5254 23.7807 67.2216 24.7031 65.8618C25.2876 65.0044 26.1874 64.1576 27.5369 63.7048C28.9535 63.229 29.8979 63.4368 30.7978 64.5159C31.4725 65.3199 32.0344 65.8702 32.8891 66.089C33.429 66.2379 34.1263 66.1984 35.0031 65.9042C36.0377 65.5569 37.0047 64.9014 37.7246 64.0376C38.4444 63.1735 38.8264 62.2868 38.8264 61.0814C38.8264 59.8754 38.2194 58.0369 35.7906 56.9662C33.8115 56.094 31.6299 56.2628 27.7168 57.5764C23.8935 58.8604 21.172 60.8244 18.8781 63.578C15.6172 67.4925 15.5721 71.0666 15.5721 75.7342V75.7342ZM14.7914 133.791C14.7914 135.815 14.8209 136.514 15.4353 137.37C16.1669 138.39 17.8935 138.721 19.9422 138.033C21.9904 137.346 23.717 135.855 24.4486 134.344C25.063 133.075 25.0924 132.357 25.0924 130.332V121.804L25.9996 121.5L37.4127 129.46C39.1393 130.677 40.1925 131.234 42.1824 130.566C43.3534 130.173 44.3773 129.449 45.2845 128.487C46.3966 127.304 47.0698 126.066 47.0698 124.876C47.0698 123.51 46.5138 122.861 44.7872 121.67L34.1935 114.27L43.8801 101.579C45.665 99.2338 46.1627 98.206 46.1627 96.8394C46.1627 95.65 45.4894 94.8643 44.3773 94.4275C43.4701 94.0748 42.4462 94.0383 41.2753 94.4314C39.2854 95.0996 38.2321 96.3645 36.5055 98.7407L25.9996 113.149L25.0924 113.454V105.837C25.0924 103.812 25.063 103.114 24.4486 102.258C23.717 101.238 21.9904 100.907 19.9422 101.594C17.8935 102.282 16.1669 103.773 15.4353 105.284C14.8209 106.553 14.7914 107.271 14.7914 109.296V133.791V133.791ZM52.6884 121.067C52.6884 123.091 52.7178 123.79 53.3322 124.646C54.0639 125.666 55.7904 125.997 57.8391 125.309C59.8873 124.622 61.6139 123.131 62.3455 121.62C62.9599 120.351 62.9894 119.633 62.9894 117.608V110.523L69.2518 108.42C78.4994 105.315 83.4741 97.9766 83.4741 92.0556C83.4741 86.1341 78.4994 82.1361 69.2518 85.2412L58.9802 88.6897C57.4586 89.2007 55.5565 89.8392 54.1227 91.5608C52.6884 93.2819 52.6884 94.9266 52.6884 96.2428V121.067V121.067ZM62.9894 102.628V95.2391L68.7839 93.2933C71.5932 92.3503 73.232 93.5965 73.232 95.4944C73.232 97.3919 71.5932 99.7392 68.7839 100.682L62.9894 102.628ZM115.577 102.078C119.82 96.984 119.878 92.3337 119.878 86.2605C119.878 80.1873 119.82 75.5761 115.577 73.3317C112.592 71.7522 109.051 71.575 103.959 73.2847C98.867 74.9943 95.3261 77.5494 92.3413 81.1328C88.0977 86.2266 88.0394 90.8768 88.0394 96.95C88.0394 103.023 88.0977 107.634 92.3413 109.879C95.3261 111.458 98.867 111.636 103.959 109.926C109.051 108.216 112.592 105.661 115.577 102.078ZM108.056 99.0358C107.295 100.151 105.832 101.402 103.959 102.031C102.086 102.659 100.623 102.391 99.8619 101.787C98.9258 101.038 98.3404 100.071 98.3404 93.4917C98.3404 86.9122 98.9258 85.5011 99.8619 84.1239C100.623 83.0078 102.086 81.8083 103.959 81.1795C105.832 80.5507 107.295 80.7678 108.056 81.3728C108.992 82.1212 109.578 83.1393 109.578 89.7188C109.578 96.2979 108.992 97.6586 108.056 99.0358ZM145.045 95.8277C152.479 93.3319 158.039 87.72 158.039 80.8369C158.039 75.7758 154.586 75.063 152.888 74.7221C154.176 73.5302 157.453 70.1524 157.453 66.053C157.453 59.8279 152.83 57.1799 144.167 60.0883L133.135 63.7925C131.613 64.3035 129.711 64.9421 128.277 66.6632C126.843 68.3847 126.843 70.0295 126.843 71.3456V96.4985C126.843 97.8142 126.843 99.4594 128.277 100.218C129.711 100.976 131.613 100.338 133.135 99.8266L145.045 95.8277V95.8277ZM137.144 76.2625V70.3415L143.524 68.1998C146.333 67.2563 147.211 68.5051 147.211 69.9476C147.211 71.3647 146.333 73.1774 143.524 74.1208L137.144 76.2625V76.2625ZM137.144 90.5851V84.2082L144.05 81.8897C146.859 80.9463 147.796 82.2518 147.796 83.7698C147.796 85.3137 146.859 87.3231 144.05 88.2665L137.144 90.5851V90.5851ZM181.625 83.5459C190.873 80.4413 195.847 73.1023 195.847 67.1809C195.847 61.2594 190.873 57.2618 181.625 60.3665L175.363 62.4692V55.3842C175.363 53.3595 175.333 52.6608 174.719 51.8047C173.987 50.7849 172.261 50.4533 170.212 51.1411C168.164 51.8288 166.437 53.3197 165.705 54.8309C165.091 56.0996 165.062 56.8178 165.062 58.8425V83.6664C165.062 84.9821 165.062 86.6273 166.496 87.3859C167.93 88.144 169.832 87.5054 171.353 86.9945L181.625 83.5459V83.5459ZM175.363 77.7534V70.3644L181.157 68.419C183.966 67.4756 185.605 68.7218 185.605 70.6197C185.605 72.5176 183.966 74.8645 181.157 75.808L175.363 77.7534V77.7534ZM43.7972 75.6638C43.7972 77.2196 43.8197 77.7564 44.292 78.4144C44.8539 79.2048 46.1808 79.4592 47.7554 78.9305C49.3294 78.4021 50.6563 77.2564 51.2188 76.0887C51.691 75.1134 51.7135 74.5614 51.7135 73.0056V64.1763L55.3795 68.4296C56.2337 69.4265 57.0658 69.7695 58.7752 69.1958C60.4846 68.6217 61.3167 67.7198 62.1714 66.1492L65.8369 59.4345V68.2638C65.8369 69.8196 65.8594 70.3564 66.3316 71.0145C66.8941 71.8048 68.221 72.0592 69.7951 71.5309C71.3696 71.0021 72.6965 69.8564 73.259 68.6887C73.7312 67.7135 73.7537 67.1614 73.7537 65.6057V46.3462C73.7537 44.9071 73.5738 43.976 72.6063 43.4582C71.8869 43.077 71.0322 43.0724 69.953 43.4349C69.008 43.7521 68.3333 44.1146 67.6365 44.757C66.849 45.469 66.2645 46.3522 65.702 47.358L58.7752 59.8937L51.8484 52.009C51.286 51.3815 50.7014 50.8905 49.9144 50.7073C49.2171 50.533 48.5424 50.6233 47.598 50.9405C46.5182 51.303 45.6635 51.8818 44.9441 52.7456C43.9772 53.9129 43.7972 54.9653 43.7972 56.4044V75.6638V75.6638ZM97.4577 62.0876C99.0769 61.544 99.6844 61.301 100.471 60.7061C101.461 59.9653 102.18 58.6738 102.18 57.4679C102.18 56.2624 101.461 55.4538 100.471 55.3774C99.6844 55.3113 99.0769 55.4762 97.4577 56.0198L88.057 59.1758V54.314L95.4335 51.8377C97.0527 51.2941 97.6602 51.0512 98.4472 50.4563C99.4368 49.7159 100.157 48.4239 100.157 47.2185C100.157 46.0125 99.4368 45.2039 98.4472 45.1276C97.6602 45.0615 97.0527 45.2268 95.4335 45.7704L88.057 48.2467V43.6181L97.4577 40.4621C99.0769 39.9185 99.6844 39.676 100.471 39.0807C101.461 38.3403 102.18 37.0483 102.18 35.8424C102.18 34.6369 101.461 33.8283 100.471 33.752C99.6844 33.6859 99.0769 33.8512 97.4577 34.3948L84.9756 38.5854C83.8066 38.978 82.3443 39.4691 81.2425 40.7916C80.1407 42.1145 80.1407 43.3785 80.1407 44.3898V63.7205C80.1407 64.7317 80.1407 65.9957 81.2425 66.5788C82.3443 67.1618 83.8066 66.6708 84.9756 66.2781L97.4577 62.0876V62.0876ZM126.2 48.0033C126.2 49.5591 126.222 50.0959 126.694 50.7544C127.257 51.5379 128.584 51.7924 130.158 51.264C131.732 50.7353 133.059 49.59 133.621 48.429C134.093 47.4534 134.116 46.9013 134.116 45.3456V26.2676C134.116 25.2563 134.116 23.9923 133.014 23.4093C131.912 22.8267 130.45 23.3177 129.281 23.7104L117.856 27.5461C116.687 27.9387 115.224 28.4297 114.123 29.7522C113.021 31.0752 113.021 32.3392 113.021 33.3505V41.9657C113.021 46.1143 112.908 50.625 108.86 52.1591C107.736 52.5755 106.971 53.0072 106.273 53.8442C105.666 54.5735 105.284 55.5186 105.284 56.3938C105.284 57.6061 106.004 58.4338 106.993 58.5097C107.78 58.5762 108.388 58.4113 110.322 57.7621C117.294 55.4211 120.622 51.5032 120.622 39.9126V32.6848L126.2 30.8118V48.0033V48.0033ZM138.884 42.9668C138.142 44.927 137.647 46.4353 139.154 47.2324C139.851 47.6013 140.908 47.6548 141.988 47.2922C142.865 46.998 143.652 46.4807 144.214 45.8446C144.889 45.0928 145.181 44.4695 145.766 42.8731L146.238 41.5866L157.483 37.8112L157.955 38.7805C158.54 39.9842 158.833 40.4112 159.507 40.7097C160.069 40.9684 160.857 40.957 161.734 40.6627C162.813 40.3001 163.87 39.5369 164.567 38.6999C166.074 36.891 165.579 35.7148 164.838 34.2528L156.291 17.5002C155.729 16.4249 155.302 16.0237 154.649 15.7952C153.862 15.5149 153.03 15.5806 151.861 15.9733C150.691 16.3659 149.859 16.8591 149.072 17.6677C148.42 18.3342 147.992 19.0224 147.43 20.4751L138.884 42.9668V42.9668ZM155.099 32.9332L148.622 35.1076L151.861 26.3189L155.099 32.9332V32.9332ZM184.494 28.4314C184.494 29.9871 184.516 30.5239 184.988 31.1824C185.55 31.966 186.877 32.2204 188.452 31.6917C190.026 31.1634 191.353 30.0177 191.915 28.8567C192.387 27.881 192.41 27.329 192.41 25.7732V6.6953C192.41 5.68401 192.41 4.42001 191.308 3.83741C190.206 3.25481 188.744 3.74539 187.574 4.13803L179.681 6.78858C172.574 9.17454 168.751 14.814 168.751 19.3646C168.751 22.3209 170.347 24.6631 173.429 25.2814L169.83 31.9351C168.931 33.5981 168.66 34.2918 168.66 35.1474C168.66 36.3143 169.335 37.0021 170.595 37.201C171.224 37.3006 171.899 37.2493 172.574 37.0229C174.598 36.3436 175.565 34.6569 176.464 32.9939L181.277 24.0657L184.494 22.9862V28.4314V28.4314ZM184.494 16.9188L180.041 18.4139C177.882 19.1386 176.622 18.1807 176.622 16.7221C176.622 15.2639 177.882 13.4597 180.041 12.735L184.494 11.2399V16.9188V16.9188Z" fill="url(#paint0_linear)"/>
<defs>
<linearGradient id="paint0_linear" x1="14.7914" y1="70.4954" x2="195.847" y2="70.4954" gradientUnits="userSpaceOnUse">
<stop stop-color="#7974DB"/>
<stop offset="1" stop-color="#6B52A1"/>
</linearGradient>
</defs>
</svg>
