<svg width="200" height="142" viewBox="0 0 200 142" fill="none" xmlns="http://www.w3.org/2000/svg">
<path fill-rule="evenodd" clip-rule="evenodd" d="M187.043 33.5572L181.23 33.1991C179.853 35.5335 177.858 37.6293 174.686 38.2554C173.821 38.426 173.119 38.4562 172.431 38.4039C172.35 38.3979 172.271 38.3903 172.19 38.3822L170.143 38.198C168.878 39.7412 167.037 40.9459 164.883 41.5354C164.024 41.7702 163.034 41.8476 162.059 41.7583C161.941 41.7477 161.823 41.7345 161.706 41.7188L154.78 40.9395L154.251 41.1173C152.536 41.7043 153.077 41.1777 152.454 42.4946C152.181 43.0719 151.874 43.6355 151.513 44.1655L172.679 46.9678C174.945 47.1796 177.016 48.1746 178.256 50.1849C178.582 50.7144 178.829 51.3402 178.979 52.0607C179.104 52.6584 179.099 53.3045 179.143 53.9021L189.818 55.6266L190.151 55.6806C192.42 56.077 194.544 56.9771 196.368 58.5152C196.902 58.9653 197.401 59.4868 197.789 60.0466C199.495 62.5099 200 64.4653 200 67.5518C200 71.0972 197.971 75.1076 196.313 77.2897C194.345 79.8802 191.941 82.1423 188.981 83.9212C187.543 84.7855 185.907 85.6584 184.147 86.2828C180.612 87.5368 176.905 88.6789 173.364 89.8912C170.308 90.9372 167.537 91.7254 164.744 90.7492L164.569 90.6854L159.331 88.7814C158.988 89.3429 158.616 89.8801 158.282 90.3344C157.635 91.2137 156.911 91.9674 156.174 92.7761C155.235 93.8059 154.053 94.7127 152.858 95.518C150.64 97.0123 148.213 98.1808 145.544 99.0902L138.453 101.44C136.503 102.109 133.305 103.243 131.294 103.732C129.29 104.22 127.45 104.223 125.509 103.52C125.275 103.435 124.983 103.294 124.686 103.129L119.992 100.602C119.867 100.822 119.734 101.035 119.59 101.238C119.384 101.529 119.282 101.767 119.081 102.051L115.573 106.208C115.44 106.335 115.369 106.375 115.244 106.509C112.878 109.012 109.411 110.965 106.06 112.394C104.466 113.073 102.829 113.559 101.033 114.009C98.2922 114.696 95.0972 114.862 92.2514 114.325C91.8018 114.24 91.3368 114.12 90.9072 113.975C89.6951 113.567 88.519 113.047 87.4451 112.438C86.9876 112.179 86.5589 111.882 86.1602 111.555L78.8306 105.755L78.7582 105.831C77.7348 106.875 76.1196 107.95 74.8037 108.777C73.3731 109.677 71.7933 110.51 70.1362 111.115L66.1652 112.467C65.7091 112.624 65.2406 112.756 64.8419 112.918C64.8419 114.811 65.0265 117.861 64.7715 119.506L64.5754 121C63.5131 125.732 57.4194 130.185 51.5048 129.102C49.4565 128.726 49.1805 128.176 48.0693 127.543L47.3552 128.845C47.0982 129.285 46.8023 129.628 46.4905 130.02C43.7994 133.402 38.5161 135.882 33.8715 133.491C32.9154 132.999 32.1505 132.423 31.3092 131.852C30.4409 131.263 29.6396 130.695 28.7738 130.107C28.3646 129.83 26.694 128.563 26.2255 128.456C26.2255 130.308 26.3667 132.474 25.9535 133.958C24.9815 137.448 21.9317 140.386 17.9497 141.513C16.8869 141.813 15.7801 141.989 14.6963 142H14.5117C12.5082 141.985 10.5946 141.397 9.18842 139.982C8.49782 139.287 7.93546 138.409 7.61112 137.356L0.243502 113.933L0.171163 113.676L0.111274 113.41L0.0633728 113.136L0.0284581 112.853L0.00747999 112.563L0 112.263V90.1286L0.0149843 89.6849L0.0578907 89.2523L0.128744 88.8308L0.226056 88.4199L0.349294 88.0196L0.496993 87.6299L0.669154 87.2509L0.863756 86.8822L1.07982 86.5232L1.31733 86.1748L1.57482 85.8358L1.85177 85.5065L2.14617 85.1875L2.45753 84.8774L2.78587 84.5771L3.12868 84.2857L3.54634 83.9646L3.99193 83.6617L4.46297 83.3793L4.95599 83.1189L5.46946 82.8833L6.00036 82.6736L6.36664 82.5515L1.55686 74.1313L1.35926 73.7098L1.20706 73.2504L1.09929 72.7468L1.03541 72.1929L1.01445 71.583V57.0256L1.01945 56.6883L1.03392 56.3591L1.05836 56.0366L1.09478 55.721L1.14268 55.4118L1.20357 55.1085L1.27842 54.8116L1.36723 54.5193L1.47102 54.2322L1.59078 53.9502L1.72702 53.6716L1.88121 53.3977L2.05286 53.1271L2.24346 52.86L2.45405 52.5954L2.68459 52.3334L2.80234 52.2079L2.92109 52.0845L3.04185 51.9637L3.16659 51.8459L3.29485 51.7319L3.42757 51.6213L3.5663 51.515L3.71149 51.4137L4.93952 50.6651L5.26535 50.5145L5.69598 50.3384L6.21892 50.1393L6.8197 49.9216L7.48486 49.6889L8.20092 49.4451L8.9534 49.1929L9.72932 48.9368L10.5147 48.6803L11.2957 48.4272L12.0586 48.1805L12.7901 47.9444L13.4757 47.7228L14.1025 47.5186L14.6564 47.3357L15.1234 47.1783L15.4558 47.0673L15.7976 46.9593L16.1473 46.8572L16.5036 46.7623L16.8659 46.6769L17.2327 46.602L17.6024 46.5407L17.9737 46.4944L18.3454 46.465L18.7167 46.4548L19.0854 46.4654L19.4512 46.4986L19.8124 46.5569L20.1677 46.642L20.5165 46.7551L20.8558 46.8997L20.9756 46.9593L21.7291 47.3604L21.8084 47.3089L21.9207 47.2183L22.027 47.1184L22.1282 47.012L22.2276 46.9014L22.3258 46.79L22.4256 46.6802L22.5284 46.5748L22.8468 46.2702L23.1712 45.9729L23.5015 45.6815L23.8383 45.3969L24.1821 45.1179L24.5329 44.8444L24.8917 44.5768L25.2584 44.3139L25.4845 44.1604L25.727 44.0055L25.9829 43.8503L26.2514 43.6954L26.5308 43.5415L26.8198 43.3896L27.1162 43.2399L27.4185 43.0936L27.7259 42.9515L28.0358 42.8141L28.3472 42.6818L28.6585 42.5559L28.9679 42.4368L29.2743 42.3253L29.5757 42.2224L29.8701 42.1284L30.5737 41.9229L31.2683 41.7426L31.9554 41.5895L32.635 41.4653L33.3076 41.3721L33.9738 41.3117L34.6345 41.2862L35.2896 41.2972L35.9398 41.347L36.586 41.4376L37.2282 41.5707L37.8674 41.7481L40.9033 42.7214L40.9357 42.3943L41.0046 41.9893L41.0979 41.6048L41.2146 41.2394L41.3534 40.8914L41.5126 40.5601L41.6912 40.2444L41.8873 39.9437L42.0989 39.6562L42.3259 39.3818L42.5659 39.1189L42.8174 38.8667L43.0789 38.6238L43.3503 38.3898L43.6278 38.1635L43.9062 37.9615L44.2206 37.7654L44.5639 37.5774L44.9266 37.3996L45.3024 37.2337L45.6831 37.081L46.0604 36.9444L46.4271 36.8258L49.5169 35.8028L50.1306 35.5918L50.7524 35.3778L51.3816 35.166L52.0173 34.9593L52.6595 34.7623L53.3072 34.5781L53.9599 34.4109L54.6165 34.2651L55.2772 34.1442L55.9409 34.0519L56.6075 33.9924L57.2762 33.9698L57.9453 33.9873L58.616 34.0498L63.1967 34.77L63.2366 34.7147L63.3404 34.5735L63.4392 34.4373L63.5395 34.2965L63.6398 34.157L63.7406 34.0196L63.8429 33.8831L63.9462 33.7482L64.0515 33.6147L64.1597 33.4824L64.271 33.3514L64.4771 33.1204L64.6727 32.9128L64.8598 32.7231L65.0405 32.5461L65.2146 32.3768L65.3853 32.2093L65.5534 32.0391L65.7206 31.8609L65.8972 31.6792L66.0869 31.5087L66.2859 31.3466L66.4935 31.1913L66.7051 31.0399L66.9207 30.8906L67.1362 30.7417L67.3498 30.5903L67.8129 30.2725L68.2924 29.9756L68.7869 29.6987L69.2944 29.4397L69.8138 29.1968L70.3437 28.9679L70.8816 28.7519L71.4275 28.546L71.9784 28.3499L72.5333 28.1602L73.0907 27.9764L73.649 27.7961L74.2074 27.6174L74.7628 27.4392L75.3157 27.2593L75.8626 27.0755L76.0572 27.0091L76.2488 26.9432L76.4384 26.8794L76.6265 26.816L76.8136 26.7543L77.0013 26.6931L77.1899 26.6331L77.38 26.574L77.7548 26.4549L78.1325 26.3311L78.5192 26.2094L78.9189 26.0959L79.3365 25.9968L79.7767 25.9185L80.2437 25.867L80.7432 25.8492L81.2856 25.8658L84.3539 26.0219L84.3893 25.9623L84.535 25.7267L84.6907 25.4952L84.8639 25.2655L85.061 25.0359L85.289 24.804L85.3649 24.73L85.4322 24.6615L85.4946 24.5969L85.5545 24.5343L85.6153 24.4727L85.6797 24.4089L85.7516 24.3421L85.8329 24.2706L85.9771 24.1528L86.1318 24.035L86.295 23.9184L86.4631 23.804L86.6348 23.693L86.8064 23.5862L86.9756 23.4845L87.1398 23.3901L87.3094 23.297L87.4896 23.2047L87.6787 23.1132L87.8753 23.0239L88.0764 22.9388L88.281 22.858L88.4861 22.784L88.6906 22.7167L89.0779 22.6079L89.475 22.5177L89.8797 22.4475L90.2894 22.3973L90.7021 22.3692L91.1152 22.3629L95.8676 22.4466L95.8701 22.4415L96.1286 22.0106L96.415 21.607L96.7184 21.2386L97.0298 20.9153L97.9639 20.1156L98.373 19.8157L98.8197 19.5393L99.2987 19.2887L99.8046 19.0667L100.333 18.8748L100.878 18.7153L101.434 18.5911L101.996 18.5039L102.559 18.4567L111.442 18.3367L111.602 17.9854L111.825 17.5298L112.053 17.101L112.285 16.7059L112.522 16.3503L112.762 16.0402L113.027 15.7411L113.306 15.4532L113.601 15.1767L113.911 14.9138L114.236 14.6654L114.577 14.4327L114.934 14.2179L115.307 14.021L115.929 13.7402L116.556 13.5041L117.187 13.3136L117.818 13.1702L118.444 13.0754L119.063 13.0303L129.33 12.5313L129.467 12.3416L129.696 12.0422L129.933 11.7457L130.181 11.4517L130.438 11.1595L131.471 10.1123L131.899 9.73539L132.336 9.38191L132.783 9.05054L133.24 8.73918L133.706 8.44695L134.181 8.17174L134.666 7.91226L135.161 7.6664L135.664 7.43244L136.177 7.20955L136.699 6.99602L137.23 6.78929L137.77 6.58852L138.319 6.392L138.877 6.19761L139.444 6.00449L139.99 5.8186L140.53 5.63357L141.068 5.45024L141.605 5.26946L142.143 5.09208L142.684 4.91895L143.232 4.75051L143.789 4.58802L144.132 4.49188L144.469 4.40043L144.803 4.31536L145.131 4.23879L145.458 4.17158L145.782 4.11628L146.104 4.0746L189.937 0.0336057C190.071 0.0191432 190.205 0.00765661 190.339 0H191.192C191.851 0.0412606 192.516 0.184186 193.208 0.469607C194.956 1.19018 196.23 2.23191 196.765 3.92019C196.99 4.63268 197.077 6.00704 197.074 6.89649V22.8495C197.074 26.303 196.891 28.1479 194.693 30.5422C193.167 32.205 189.923 33.8176 187.043 33.5572V33.5572ZM179.229 56.9163L179.453 56.8657C179.379 56.8844 179.304 56.9014 179.229 56.9163ZM179.453 56.8657L179.676 56.804C179.602 56.8261 179.527 56.847 179.453 56.8657ZM160.213 61.4031L160.209 60.7284C160.212 60.9475 160.213 61.1721 160.213 61.4031ZM122.799 47.3655L118.873 46.6649L118.87 46.6645L122.799 47.3655V47.3655ZM85.3205 55.7529L85.2676 55.9422C85.2975 55.8597 85.3165 55.795 85.3205 55.7529ZM85.2676 55.9422L85.1478 56.2374C85.1967 56.1243 85.2376 56.0247 85.2676 55.9422ZM85.1478 56.2374L84.9806 56.6109C85.042 56.4765 85.0989 56.3506 85.1478 56.2374ZM101.021 98.4611L101.551 98.151C101.387 98.2505 101.211 98.3526 101.021 98.4611ZM101.551 98.151L102.006 97.8549C101.866 97.9536 101.715 98.051 101.551 98.151ZM102.006 97.8549L102.39 97.5495C102.273 97.6554 102.145 97.7558 102.006 97.8549ZM102.39 97.5495L102.711 97.2113C102.614 97.3321 102.508 97.4436 102.39 97.5495ZM102.711 97.2113L102.973 96.817C102.895 96.9604 102.808 97.0905 102.711 97.2113ZM102.973 96.817L103.183 96.3432C103.121 96.5172 103.052 96.6737 102.973 96.817ZM103.183 96.3432L103.346 95.7655C103.298 95.9778 103.245 96.1696 103.183 96.3432ZM103.346 95.7655L103.467 95.0616C103.433 95.3202 103.392 95.5533 103.346 95.7655ZM31.6211 77.0332L31.4604 77.3633L31.2782 77.8197L31.1275 78.2965L30.9749 78.1991L30.8172 78.0813L30.6505 77.9477L30.4724 77.801L30.2788 77.6453L30.0667 77.4841L29.8332 77.3212L29.5747 77.1604L29.2878 77.0039L28.9694 76.8575L28.6161 76.7231L28.2249 76.6053L27.7923 76.507L27.3148 76.4326L26.7898 76.3854L26.213 76.3688L25.7554 76.3803L25.3163 76.4143L24.8936 76.4696L24.488 76.5457L24.47 76.55V70.3588L31.6211 77.0332V77.0332ZM34.8405 53.8383L34.7078 53.9634C34.7527 53.9238 34.7976 53.8813 34.8405 53.8383ZM34.7078 53.9634L34.5676 54.0765C34.616 54.0412 34.6624 54.0034 34.7078 53.9634ZM34.5676 54.0765L34.4169 54.1744C34.4693 54.1446 34.5192 54.1119 34.5676 54.0765ZM89.4576 34.7666L89.2485 34.9895C89.3184 34.9171 89.3882 34.8431 89.4576 34.7666ZM142.564 28.4069L142.443 28.6791C142.48 28.5996 142.521 28.5081 142.564 28.4069ZM142.443 28.6791L142.344 28.8799C142.373 28.8259 142.406 28.7587 142.443 28.6791ZM142.344 28.8799L142.27 28.9981C142.29 28.9739 142.315 28.9335 142.344 28.8799ZM112.432 28.0079L112.235 28.3337C112.304 28.2227 112.369 28.1138 112.432 28.0079ZM104.5 28.0088L104.032 28.1576C104.188 28.1096 104.344 28.0598 104.5 28.0088ZM103.659 85.7362L103.648 85.5865C103.653 85.6358 103.656 85.6856 103.659 85.7362ZM103.753 87.9907L103.75 87.8056C103.752 87.8626 103.753 87.9239 103.753 87.9907ZM121.519 98.8941L121.431 98.4262C121.463 98.5827 121.49 98.7388 121.519 98.8941ZM121.431 98.4262L121.304 97.8796C121.355 98.0638 121.395 98.2454 121.431 98.4262ZM76.9314 80.0712V80.0716L66.2715 74.0633H66.272L76.9314 80.0712ZM59.5406 71.8497L59.5356 71.8471L59.5351 71.8463L59.5406 71.8497V71.8497ZM71.6296 80.4923L72.1346 80.457C71.958 80.4723 71.7913 80.4833 71.6296 80.4923ZM72.1346 80.457L72.7 80.3953C72.4979 80.4221 72.3113 80.4417 72.1346 80.457ZM45.8283 92.5421L46.0254 92.6893C45.9611 92.6442 45.8957 92.5944 45.8283 92.5421ZM46.0254 92.6893L46.2165 92.8109C46.1532 92.7748 46.0898 92.7344 46.0254 92.6893ZM25.5553 101.2L26.1077 102.017L25.5553 101.2V101.2ZM25.7015 101.525L26.0658 102.064L25.7015 101.525V101.525ZM26.0867 102.041L26.0922 102.034L26.0977 102.028L26.0867 102.041V102.041ZM26.0977 102.028L26.1027 102.022L26.1077 102.017L26.0977 102.028V102.028ZM160.418 86.5083L160.413 86.5027L160.408 86.4963L160.418 86.5083ZM160.454 86.5878L160.45 86.5806L160.446 86.5725L160.454 86.5878ZM160.446 86.5725L160.442 86.5631L160.44 86.5525L160.446 86.5725V86.5725Z" fill="#FEFEFE"/>
<path d="M12.7984 83.7477C12.7984 85.1884 12.8199 85.6853 13.2635 86.2948C13.7914 87.0205 15.0379 87.2561 16.5164 86.7665C17.9949 86.2774 19.2414 85.2165 19.7693 84.1412C20.2129 83.2381 20.2344 82.7268 20.2344 81.2861V65.3676L27.9657 62.8086C29.4867 62.3054 30.057 62.0803 30.796 61.5299C31.7256 60.8442 32.4018 59.6481 32.4018 58.5315C32.4018 57.4149 31.7256 56.6663 30.796 56.5956C30.057 56.5344 29.4867 56.6871 27.9657 57.1903L17.3402 60.7073C16.242 61.0709 14.8687 61.5257 13.8338 62.7503C12.7984 63.9758 12.7984 65.146 12.7984 66.0826V83.7477V83.7477ZM11.532 133.764C11.532 135.795 11.5619 136.496 12.1872 137.355C12.9316 138.378 14.6886 138.71 16.7734 138.02C18.8577 137.33 20.6146 135.835 21.3591 134.319C21.9843 133.047 22.0143 132.326 22.0143 130.294V121.74L22.9374 121.434L34.5514 129.42C36.3084 130.641 37.3802 131.2 39.4051 130.529C40.5967 130.135 41.6386 129.409 42.5617 128.444C43.6934 127.257 44.3786 126.015 44.3786 124.822C44.3786 123.451 43.8127 122.8 42.0557 121.605L31.2755 114.181L41.1326 101.45C42.9489 99.0975 43.4554 98.0664 43.4554 96.6955C43.4554 95.5023 42.7703 94.7141 41.6386 94.276C40.7155 93.9221 39.6736 93.8855 38.482 94.2798C36.4571 94.9502 35.3852 96.2191 33.6283 98.6028L22.9374 113.057L22.0143 113.363V105.722C22.0143 103.691 21.9843 102.99 21.3591 102.131C20.6146 101.108 18.8577 100.776 16.7734 101.466C14.6886 102.155 12.9316 103.651 12.1872 105.167C11.5619 106.44 11.532 107.16 11.532 109.191V133.764V133.764ZM50.096 121C50.096 123.031 50.1259 123.732 50.7512 124.591C51.4957 125.614 53.2526 125.946 55.3374 125.256C57.4217 124.566 59.1786 123.071 59.9231 121.555C60.5483 120.282 60.5783 119.562 60.5783 117.53V110.422L66.9509 108.313C76.3614 105.198 81.4236 97.8363 81.4236 91.8965C81.4236 85.9562 76.3614 81.9454 66.9509 85.0604L56.4985 88.5199C54.9502 89.0325 53.0146 89.6731 51.5555 91.4001C50.096 93.1266 50.096 94.7766 50.096 96.097V121V121ZM60.5783 102.503V95.0901L66.4749 93.1381C69.3336 92.1921 71.0012 93.4423 71.0012 95.3462C71.0012 97.2497 69.3336 99.6045 66.4749 100.551L60.5783 102.503ZM114.092 101.95C118.409 96.8405 118.469 92.1755 118.469 86.083C118.469 79.9904 118.409 75.3646 114.092 73.1131C111.054 71.5286 107.45 71.3508 102.269 73.0659C97.0875 74.781 93.4842 77.3442 90.4469 80.939C86.1286 86.0489 86.0692 90.714 86.0692 96.8065C86.0692 102.899 86.1286 107.525 90.4469 109.776C93.4842 111.361 97.0875 111.539 102.269 109.824C107.45 108.108 111.054 105.545 114.092 101.95ZM106.438 98.8989C105.664 100.018 104.175 101.272 102.269 101.903C100.363 102.534 98.8743 102.265 98.0999 101.659C97.1473 100.908 96.5515 99.9372 96.5515 93.3372C96.5515 86.7368 97.1473 85.3211 98.0999 83.9395C98.8743 82.82 100.363 81.6166 102.269 80.9858C104.175 80.355 105.664 80.5728 106.438 81.1798C107.391 81.9305 107.987 82.9519 107.987 89.5523C107.987 96.1523 107.391 97.5173 106.438 98.8989ZM144.078 95.6805C151.643 93.1768 157.301 87.5471 157.301 80.6421C157.301 75.5649 153.787 74.8499 152.059 74.5079C153.37 73.3122 156.705 69.9237 156.705 65.8112C156.705 59.5664 152 56.91 143.185 59.8276L131.958 63.5436C130.41 64.0562 128.474 64.6968 127.015 66.4233C125.556 68.1503 125.556 69.8003 125.556 71.1207V96.3535C125.556 97.6734 125.556 99.3238 127.015 100.084C128.474 100.845 130.41 100.205 131.958 99.6922L144.078 95.6805V95.6805ZM136.038 76.0532V70.1134L142.53 67.9649C145.389 67.0184 146.282 68.2711 146.282 69.7182C146.282 71.1398 145.389 72.9583 142.53 73.9047L136.038 76.0532V76.0532ZM136.038 90.4213V84.0242L143.066 81.6983C145.925 80.7518 146.878 82.0615 146.878 83.5844C146.878 85.1331 145.925 87.149 143.066 88.0954L136.038 90.4213V90.4213ZM181.302 83.3598C190.713 80.2452 195.775 72.883 195.775 66.9427C195.775 61.0025 190.713 56.9921 181.302 60.1066L174.93 62.216V55.1086C174.93 53.0774 174.9 52.3764 174.274 51.5176C173.53 50.4946 171.773 50.162 169.689 50.8519C167.604 51.5419 165.847 53.0375 165.102 54.5535C164.477 55.8262 164.447 56.5467 164.447 58.5779V83.4806C164.447 84.8005 164.447 86.4509 165.907 87.2119C167.366 87.9725 169.301 87.3319 170.85 86.8193L181.302 83.3598V83.3598ZM174.93 77.5488V70.1364L180.826 68.1848C183.685 67.2383 185.352 68.4885 185.352 70.3924C185.352 72.2964 183.685 74.6508 180.826 75.5972L174.93 77.5488V77.5488ZM54.4766 71.4652C57.5394 67.8402 57.5818 64.5309 57.5818 60.2092C57.5818 55.8874 57.5394 52.6057 54.4766 51.0089C52.322 49.8851 49.7657 49.7587 46.0901 50.9753C42.4145 52.1918 39.8587 54.0103 37.704 56.5603C34.6412 60.1849 34.5988 63.4947 34.5988 67.8164C34.5988 72.1381 34.6412 75.4194 37.704 77.0167C39.8587 78.1401 42.4145 78.2664 46.0901 77.0499C49.7657 75.8333 52.322 74.0149 54.4766 71.4652ZM49.0476 69.3005C48.4982 70.0947 47.4424 70.9841 46.0901 71.4316C44.7383 71.8791 43.6819 71.6885 43.1331 71.2581C42.4569 70.7255 42.0343 70.0368 42.0343 65.3552C42.0343 60.6732 42.4569 59.6689 43.1331 58.6889C43.6819 57.8947 44.7383 57.041 46.0901 56.5935C47.4424 56.146 48.4982 56.3009 49.0476 56.7313C49.7237 57.2639 50.1459 57.9883 50.1459 62.6703C50.1459 67.3519 49.7237 68.3205 49.0476 69.3005V69.3005ZM62.6092 67.2605C62.6092 68.7012 62.6306 69.1984 63.0742 69.808C63.6022 70.5337 64.8487 70.7693 66.3272 70.2797C67.8057 69.7906 69.0522 68.7297 69.5801 67.6543C70.0237 66.7513 70.0451 66.24 70.0451 64.7993V59.7574L74.5655 58.2614C81.241 56.0516 84.8317 50.8294 84.8317 46.6157C84.8317 42.402 81.241 39.5567 74.5655 41.7665L67.151 44.2204C66.0527 44.5841 64.6795 45.0384 63.6446 46.2635C62.6092 47.4885 62.6092 48.6587 62.6092 49.5954V67.2605V67.2605ZM70.0451 54.1391V48.8808L74.2277 47.4966C76.2556 46.8254 77.4382 47.7127 77.4382 49.0632C77.4382 50.4138 76.2556 52.0838 74.2277 52.755L70.0451 54.1391ZM103.083 53.8644C103.083 55.3051 103.104 55.8019 103.547 56.4115C104.076 57.1371 105.322 57.3732 106.801 56.8836C108.279 56.394 109.526 55.3332 110.054 54.2578C110.497 53.3548 110.519 52.8439 110.519 51.4032V33.7381C110.519 32.8014 110.519 31.6313 109.483 31.091C108.448 30.5517 107.075 31.006 105.977 31.3697L98.5625 33.8236C91.887 36.0334 88.2962 41.2556 88.2962 45.4693C88.2962 48.2066 89.7957 50.3751 92.6898 50.9476L89.3102 57.1086C88.4649 58.6485 88.2114 59.2908 88.2114 60.0832C88.2114 61.1637 88.8451 61.8 90.0282 61.9846C90.6195 62.0774 91.2533 62.0297 91.887 61.82C93.7881 61.1905 94.6968 59.6289 95.5416 58.0891L100.062 49.8221L103.083 48.8225V53.8644V53.8644ZM103.083 43.2042L98.9003 44.5884C96.8724 45.2596 95.6893 44.3727 95.6893 43.0222C95.6893 41.6716 96.8724 40.0012 98.9003 39.33L103.083 37.9458V43.2042ZM130.586 44.7611C130.586 46.2018 130.608 46.6986 131.051 47.3082C131.579 48.0339 132.826 48.2695 134.304 47.7803C135.783 47.2907 137.029 46.2299 137.558 45.1545C138.001 44.2515 138.022 43.7402 138.022 42.2995V24.8683C138.022 23.4276 138.001 22.9308 137.558 22.3212C137.029 21.5956 135.783 21.3599 134.304 21.8495C132.826 22.3387 131.579 23.3995 131.051 24.4749C130.608 25.3779 130.586 25.8892 130.586 27.3299V34.317C129.171 35.0014 127.883 35.5357 126.129 36.1163C124.312 36.7174 123.32 36.1997 123.32 34.7773V29.735C123.32 28.2943 123.298 27.797 122.855 27.1879C122.327 26.4618 121.08 26.2261 119.602 26.7157C118.123 27.2049 116.877 28.2657 116.349 29.3411C115.905 30.2441 115.884 30.7554 115.884 32.1961V39.0029C115.884 42.9286 119.623 43.9235 123.763 42.5534C126.256 41.7282 128.178 40.9119 130.586 39.7549V44.7611V44.7611ZM142.5 40.0973C141.803 41.9124 141.338 43.3089 142.754 44.0469C143.409 44.3885 144.401 44.4382 145.415 44.1026C146.239 43.83 146.979 43.3506 147.506 42.7619C148.14 42.066 148.415 41.4887 148.964 40.0106L149.408 38.8191L159.97 35.323L160.413 36.221C160.963 37.3359 161.237 37.731 161.871 38.0075C162.399 38.2466 163.138 38.2364 163.962 37.9637C164.976 37.6281 165.969 36.9211 166.624 36.1461C168.039 34.471 167.574 33.3825 166.877 32.0286L158.85 16.5162C158.322 15.52 157.921 15.1491 157.308 14.9373C156.569 14.6782 155.787 14.7386 154.689 15.1023C153.59 15.466 152.809 15.9229 152.069 16.6715C151.457 17.2883 151.055 17.9255 150.527 19.2709L142.5 40.0973V40.0973ZM157.731 30.8065L151.647 32.8197L154.689 24.6825L157.731 30.8065V30.8065ZM185.34 26.6379C185.34 28.0786 185.361 28.5758 185.805 29.1854C186.333 29.9106 187.579 30.1467 189.058 29.6571C190.536 29.168 191.783 28.1071 192.311 27.0318C192.754 26.1287 192.776 25.6174 192.776 24.1767V6.51161C192.776 5.57495 192.776 4.40476 191.741 3.86497C190.706 3.32518 189.332 3.7799 188.234 4.14316L180.82 6.59753C174.144 8.80689 170.553 14.0291 170.553 18.2428C170.553 20.9801 172.053 23.1486 174.947 23.7211L171.567 29.8822C170.722 31.4224 170.469 32.0643 170.469 32.8567C170.469 33.9372 171.102 34.574 172.285 34.7581C172.877 34.8509 173.51 34.8032 174.144 34.5935C176.045 33.9644 176.954 32.4029 177.799 30.8626L182.319 22.596L185.34 21.596V26.6379ZM185.34 15.9777L181.157 17.3623C179.129 18.0335 177.946 17.1462 177.946 15.7957C177.946 14.4451 179.129 12.7751 181.157 12.1039L185.34 10.7193V15.9777Z" fill="url(#paint0_linear)"/>
<defs>
<linearGradient id="paint0_linear" x1="11.532" y1="70.6438" x2="195.775" y2="70.6438" gradientUnits="userSpaceOnUse">
<stop stop-color="#7974DB"/>
<stop offset="1" stop-color="#6B52A1"/>
</linearGradient>
</defs>
</svg>
